# xmcd
#
# Track frame offsets: 
#        150
#        13637
#        28505
#        39372
#        55670
#        67897
#        79215
#        92905
#        108532
#        121305
#        134530
#        150457
#        165442
#        175867
#        199647
#        213670
#        231872
#        243097
#        256447
#        266032
#
# Disc length: 3761 seconds
#
# Revision: 4
# Processed by: cddbd v1.5.2PL0 Copyright (c) Steve Scherf et al.
# Submitted via: ExactAudioCopy v0.95b4
#
DISCID=090eaf14
DTITLE=The Statler Brothers - A 30th Anniversary Celebration [Disc 2]
DYEAR=1994
DGENRE=Country
TTITLE0=Charlotte's Web
TTITLE1=Don't Wait On Me
TTITLE2=Years Ago
TTITLE3=We Got Paid By Cash
TTITLE4=Child Of The Fifties
TTITLE5=Oh Baby Mine (I Get So Lonely)
TTITLE6=Guilty
TTITLE7=Elizabeth
TTITLE8=Atlanta Blue
TTITLE9=Hollywood
TTITLE10=One Takes The Blame
TTITLE11=My Only Love
TTITLE12=Hello Mary Lou
TTITLE13=Amazing Grace
TTITLE14=Sweeter And Sweeter
TTITLE15=Too Much On My Heart
TTITLE16=Count On Me
TTITLE17=Forever
TTITLE18=I'll Be The One
TTITLE19=More Like My Daddy Than Me
EXTD=Mercury Records
EXTT0=
EXTT1=
EXTT2=
EXTT3=
EXTT4=
EXTT5=
EXTT6=
EXTT7=
EXTT8=
EXTT9=
EXTT10=
EXTT11=
EXTT12=
EXTT13=
EXTT14=
EXTT15=
EXTT16=
EXTT17=
EXTT18=
EXTT19=
PLAYORDER=
